<svg width="369" height="418" viewBox="0 0 369 418" fill="none" xmlns="http://www.w3.org/2000/svg">
<g clip-path="url(#clip0_464_601)">
<path fill-rule="evenodd" clip-rule="evenodd" d="M97.5517 0C43.6755 0 0 44.1019 0 98.5041V319.496C0 373.899 43.6755 418 97.5517 418C120.873 418 142.282 409.737 159.066 395.952C80.319 379.195 21.2069 308.635 21.2069 224.133C21.2069 131.63 92.0422 55.8341 181.928 49.0348C165.03 19.7117 133.571 0 97.5517 0ZM182.183 49.4799C140.221 55.7208 108.014 92.2301 108.014 136.335C108.014 184.825 146.942 224.133 194.962 224.133C146.942 224.133 108.014 263.441 108.014 311.93C108.014 348.71 130.413 380.209 162.188 393.277C182.376 375.229 195.103 348.864 195.103 319.496V224.133C243.059 224.21 281.91 263.488 281.91 311.93C281.91 360.399 243.014 399.695 195.021 399.727H195.103C291.145 399.727 369 321.112 369 224.133C369 127.155 291.145 48.5383 195.103 48.5383H195.021C243.014 48.5702 281.91 87.866 281.91 136.335C281.91 184.777 243.059 224.055 195.103 224.133V98.5041C195.103 80.6563 190.403 63.9169 182.183 49.4799Z" fill="black"/>
</g>
<defs>
<clipPath id="clip0_464_601">
<rect width="369" height="418" fill="white"/>
</clipPath>
</defs>
</svg>
